<mxfile host="app.diagrams.net" modified="2023-11-08T06:53:25.714Z" agent="Mozilla/5.0 (X11; Linux x86_64) AppleWebKit/537.36 (KHTML, like Gecko) Chrome/118.0.0.0 Safari/537.36" etag="eQQK7fzhuA-j1d7c-OP7" version="22.0.8" type="github">
  <diagram name="Page-1" id="e7e014a7-5840-1c2e-5031-d8a46d1fe8dd">
    <mxGraphModel dx="1034" dy="1008" grid="1" gridSize="10" guides="1" tooltips="1" connect="1" arrows="1" fold="1" page="1" pageScale="1" pageWidth="1169" pageHeight="826" background="none" math="0" shadow="0">
      <root>
        <mxCell id="0" />
        <mxCell id="1" parent="0" />
        <mxCell id="2" value="Host Kernel" style="swimlane;whiteSpace=wrap" parent="1" vertex="1">
          <mxGeometry x="164.5" y="46" width="280" height="734" as="geometry" />
        </mxCell>
        <mxCell id="XDHeAxbocozUA5h-Fq1C-47" value="vCPU init" style="html=1;whiteSpace=wrap;" vertex="1" parent="2">
          <mxGeometry x="85" y="112" width="110" height="50" as="geometry" />
        </mxCell>
        <mxCell id="XDHeAxbocozUA5h-Fq1C-51" value="&lt;p style=&quot;margin:0px;margin-top:4px;text-align:center;text-decoration:underline;&quot;&gt;&lt;b&gt;vcpu: kvm_vcpu&lt;/b&gt;&lt;/p&gt;&lt;hr&gt;&lt;p style=&quot;margin:0px;margin-left:8px;&quot;&gt;kvm_reset_sys_regs&lt;/p&gt;" style="verticalAlign=top;align=left;overflow=fill;fontSize=12;fontFamily=Helvetica;html=1;whiteSpace=wrap;" vertex="1" parent="2">
          <mxGeometry x="60" y="202" width="160" height="90" as="geometry" />
        </mxCell>
        <mxCell id="XDHeAxbocozUA5h-Fq1C-52" value="reset vCPU" style="endArrow=block;endFill=1;html=1;edgeStyle=orthogonalEdgeStyle;align=left;verticalAlign=top;rounded=0;exitX=0.5;exitY=1;exitDx=0;exitDy=0;entryX=0.5;entryY=0;entryDx=0;entryDy=0;" edge="1" parent="2" source="XDHeAxbocozUA5h-Fq1C-47" target="XDHeAxbocozUA5h-Fq1C-51">
          <mxGeometry x="-1" relative="1" as="geometry">
            <mxPoint x="235.5" y="442" as="sourcePoint" />
            <mxPoint x="395.5" y="442" as="targetPoint" />
          </mxGeometry>
        </mxCell>
        <mxCell id="XDHeAxbocozUA5h-Fq1C-53" value="1" style="edgeLabel;resizable=0;html=1;align=left;verticalAlign=bottom;" connectable="0" vertex="1" parent="XDHeAxbocozUA5h-Fq1C-52">
          <mxGeometry x="-1" relative="1" as="geometry" />
        </mxCell>
        <mxCell id="XDHeAxbocozUA5h-Fq1C-77" value="vCPU" style="html=1;whiteSpace=wrap;" vertex="1" parent="2">
          <mxGeometry x="95.5" y="317" width="110" height="50" as="geometry" />
        </mxCell>
        <mxCell id="XDHeAxbocozUA5h-Fq1C-78" value="vCPU" style="html=1;whiteSpace=wrap;" vertex="1" parent="2">
          <mxGeometry x="95.5" y="494" width="110" height="50" as="geometry" />
        </mxCell>
        <mxCell id="XDHeAxbocozUA5h-Fq1C-70" value="kick off VM" style="rounded=0;whiteSpace=wrap;html=1;" vertex="1" parent="2">
          <mxGeometry x="80" y="404" width="120" height="60" as="geometry" />
        </mxCell>
        <mxCell id="3" value="QEMU" style="swimlane;whiteSpace=wrap" parent="1" vertex="1">
          <mxGeometry x="444.5" y="46" width="280" height="734" as="geometry" />
        </mxCell>
        <mxCell id="13" value="" style="ellipse;shape=startState;fillColor=#000000;strokeColor=#ff0000;" parent="3" vertex="1">
          <mxGeometry x="125" y="40" width="30" height="30" as="geometry" />
        </mxCell>
        <mxCell id="14" value="" style="edgeStyle=elbowEdgeStyle;elbow=horizontal;verticalAlign=bottom;endArrow=open;endSize=8;strokeColor=#FF0000;endFill=1;rounded=0" parent="3" source="13" edge="1">
          <mxGeometry x="40" y="20" as="geometry">
            <mxPoint x="139.83333333333348" y="110" as="targetPoint" />
          </mxGeometry>
        </mxCell>
        <mxCell id="XDHeAxbocozUA5h-Fq1C-41" value="vCPU init ioctl" style="html=1;whiteSpace=wrap;" vertex="1" parent="3">
          <mxGeometry x="85.5" y="112" width="110" height="50" as="geometry" />
        </mxCell>
        <mxCell id="XDHeAxbocozUA5h-Fq1C-56" value="return" style="html=1;verticalAlign=bottom;endArrow=open;dashed=1;endSize=8;curved=0;rounded=0;" edge="1" parent="3">
          <mxGeometry relative="1" as="geometry">
            <mxPoint x="-54.5" y="344" as="sourcePoint" />
            <mxPoint x="45.5" y="344" as="targetPoint" />
          </mxGeometry>
        </mxCell>
        <mxCell id="XDHeAxbocozUA5h-Fq1C-65" value="Use" style="endArrow=open;endSize=12;dashed=1;html=1;rounded=0;" edge="1" parent="3">
          <mxGeometry width="160" relative="1" as="geometry">
            <mxPoint x="-54.5" y="514" as="sourcePoint" />
            <mxPoint x="325.5" y="514" as="targetPoint" />
          </mxGeometry>
        </mxCell>
        <mxCell id="XDHeAxbocozUA5h-Fq1C-69" value="vCPU" style="html=1;whiteSpace=wrap;" vertex="1" parent="3">
          <mxGeometry x="75.5" y="317" width="110" height="50" as="geometry" />
        </mxCell>
        <mxCell id="XDHeAxbocozUA5h-Fq1C-79" value="vCPU" style="html=1;whiteSpace=wrap;" vertex="1" parent="3">
          <mxGeometry x="-4.5" y="494" width="110" height="50" as="geometry" />
        </mxCell>
        <mxCell id="4" value="Guest Kernel" style="swimlane;whiteSpace=wrap" parent="1" vertex="1">
          <mxGeometry x="724.5" y="46" width="280" height="734" as="geometry" />
        </mxCell>
        <mxCell id="XDHeAxbocozUA5h-Fq1C-58" value="cpuinfo_store_boot_cpu()" style="html=1;whiteSpace=wrap;" vertex="1" parent="4">
          <mxGeometry x="47.5" y="484" width="185" height="50" as="geometry" />
        </mxCell>
        <mxCell id="XDHeAxbocozUA5h-Fq1C-64" value="&lt;p style=&quot;margin:0px;margin-top:4px;text-align:center;text-decoration:underline;&quot;&gt;&lt;b&gt;init_cpu_features()&lt;/b&gt;&lt;/p&gt;&lt;hr&gt;&lt;p style=&quot;margin:0px;margin-left:8px;&quot;&gt;init_cpu_ftr_reg()&lt;/p&gt;&lt;p style=&quot;margin:0px;margin-left:8px;&quot;&gt;init_cpu_hwcaps_indirect_list()&lt;/p&gt;&lt;p style=&quot;margin:0px;margin-left:8px;&quot;&gt;setup_boot_cpu_capabilities()&lt;/p&gt;" style="verticalAlign=top;align=left;overflow=fill;fontSize=12;fontFamily=Helvetica;html=1;whiteSpace=wrap;" vertex="1" parent="4">
          <mxGeometry x="29" y="564" width="222" height="90" as="geometry" />
        </mxCell>
        <mxCell id="XDHeAxbocozUA5h-Fq1C-74" value="" style="ellipse;html=1;shape=startState;fillColor=#000000;strokeColor=#ff0000;" vertex="1" parent="4">
          <mxGeometry x="126.5" y="420" width="30" height="30" as="geometry" />
        </mxCell>
        <mxCell id="XDHeAxbocozUA5h-Fq1C-75" value="" style="edgeStyle=orthogonalEdgeStyle;html=1;verticalAlign=bottom;endArrow=open;endSize=8;strokeColor=#ff0000;rounded=0;" edge="1" source="XDHeAxbocozUA5h-Fq1C-74" parent="4">
          <mxGeometry relative="1" as="geometry">
            <mxPoint x="140.5" y="484" as="targetPoint" />
          </mxGeometry>
        </mxCell>
        <mxCell id="XDHeAxbocozUA5h-Fq1C-76" value="detect CPU features" style="html=1;whiteSpace=wrap;" vertex="1" parent="4">
          <mxGeometry x="67.5" y="674" width="145" height="50" as="geometry" />
        </mxCell>
        <mxCell id="XDHeAxbocozUA5h-Fq1C-45" value="" style="endArrow=open;endFill=1;endSize=12;html=1;rounded=0;exitX=0;exitY=0.5;exitDx=0;exitDy=0;" edge="1" parent="1" source="XDHeAxbocozUA5h-Fq1C-41">
          <mxGeometry width="160" relative="1" as="geometry">
            <mxPoint x="400" y="570" as="sourcePoint" />
            <mxPoint x="360" y="183" as="targetPoint" />
          </mxGeometry>
        </mxCell>
        <mxCell id="XDHeAxbocozUA5h-Fq1C-67" value="Real&lt;br&gt;CPU" style="html=1;whiteSpace=wrap;" vertex="1" parent="1">
          <mxGeometry x="30" y="268" width="110" height="442" as="geometry" />
        </mxCell>
        <mxCell id="XDHeAxbocozUA5h-Fq1C-68" value="" style="endArrow=block;dashed=1;endFill=0;endSize=12;html=1;rounded=0;exitX=1.024;exitY=0.071;exitDx=0;exitDy=0;exitPerimeter=0;" edge="1" parent="1" source="XDHeAxbocozUA5h-Fq1C-67">
          <mxGeometry width="160" relative="1" as="geometry">
            <mxPoint x="150" y="300" as="sourcePoint" />
            <mxPoint x="220" y="300" as="targetPoint" />
          </mxGeometry>
        </mxCell>
        <mxCell id="XDHeAxbocozUA5h-Fq1C-80" value="" style="endArrow=block;dashed=1;endFill=0;endSize=12;html=1;rounded=0;exitX=0.5;exitY=1;exitDx=0;exitDy=0;" edge="1" parent="1" source="XDHeAxbocozUA5h-Fq1C-69">
          <mxGeometry width="160" relative="1" as="geometry">
            <mxPoint x="430" y="360" as="sourcePoint" />
            <mxPoint x="575" y="440" as="targetPoint" />
          </mxGeometry>
        </mxCell>
        <mxCell id="XDHeAxbocozUA5h-Fq1C-71" value="run VM" style="endArrow=block;endFill=1;html=1;edgeStyle=orthogonalEdgeStyle;align=left;verticalAlign=top;rounded=0;entryX=0;entryY=0.5;entryDx=0;entryDy=0;exitX=1;exitY=0.5;exitDx=0;exitDy=0;" edge="1" parent="1" source="XDHeAxbocozUA5h-Fq1C-70" target="XDHeAxbocozUA5h-Fq1C-74">
          <mxGeometry x="-1" relative="1" as="geometry">
            <mxPoint x="640" y="479.58" as="sourcePoint" />
            <mxPoint x="809.5" y="479.58333333333326" as="targetPoint" />
          </mxGeometry>
        </mxCell>
        <mxCell id="XDHeAxbocozUA5h-Fq1C-72" value="1" style="edgeLabel;resizable=0;html=1;align=left;verticalAlign=bottom;" connectable="0" vertex="1" parent="XDHeAxbocozUA5h-Fq1C-71">
          <mxGeometry x="-1" relative="1" as="geometry" />
        </mxCell>
      </root>
    </mxGraphModel>
  </diagram>
</mxfile>
